<svg xmlns="http://www.w3.org/2000/svg" width="980" height="540" viewBox="0 0 980 540">
<rect width="100%" height="100%" fill="#ffffff"/>
<text x="490" y="34" text-anchor="middle" font-family="Arial, sans-serif" font-size="20" font-weight="700">Three Validation Runs: Mean Error</text>
<line x1="90" y1="440" x2="940" y2="440" stroke="#333"/>
<line x1="90" y1="70" x2="90" y2="440" stroke="#333"/>
<text x="24" y="255.0" transform="rotate(-90 24 255.0)" text-anchor="middle" font-family="Arial, sans-serif" font-size="14">Mean error</text>
<line x1="90" y1="440.00" x2="940" y2="440.00" stroke="#dddddd"/>
<text x="80" y="444.00" text-anchor="end" font-family="Arial, sans-serif" font-size="12">0.000</text>
<line x1="90" y1="366.00" x2="940" y2="366.00" stroke="#dddddd"/>
<text x="80" y="370.00" text-anchor="end" font-family="Arial, sans-serif" font-size="12">0.098</text>
<line x1="90" y1="292.00" x2="940" y2="292.00" stroke="#dddddd"/>
<text x="80" y="296.00" text-anchor="end" font-family="Arial, sans-serif" font-size="12">0.196</text>
<line x1="90" y1="218.00" x2="940" y2="218.00" stroke="#dddddd"/>
<text x="80" y="222.00" text-anchor="end" font-family="Arial, sans-serif" font-size="12">0.293</text>
<line x1="90" y1="144.00" x2="940" y2="144.00" stroke="#dddddd"/>
<text x="80" y="148.00" text-anchor="end" font-family="Arial, sans-serif" font-size="12">0.391</text>
<line x1="90" y1="70.00" x2="940" y2="70.00" stroke="#dddddd"/>
<text x="80" y="74.00" text-anchor="end" font-family="Arial, sans-serif" font-size="12">0.489</text>
<rect x="146.67" y="118.26" width="46.47" height="321.74" fill="#4C78A8"/>
<text x="169.90" y="112.26" text-anchor="middle" font-family="Arial, sans-serif" font-size="10">0.425</text>
<rect x="203.33" y="263.07" width="46.47" height="176.93" fill="#59A14F"/>
<text x="226.57" y="257.07" text-anchor="middle" font-family="Arial, sans-serif" font-size="10">0.234</text>
<rect x="260.00" y="155.90" width="46.47" height="284.10" fill="#F28E2B"/>
<text x="283.23" y="149.90" text-anchor="middle" font-family="Arial, sans-serif" font-size="10">0.375</text>
<text x="203.33" y="468" text-anchor="middle" font-family="Arial, sans-serif" font-size="12">run1_20260518_existing</text>
<rect x="430.00" y="118.26" width="46.47" height="321.74" fill="#4C78A8"/>
<text x="453.23" y="112.26" text-anchor="middle" font-family="Arial, sans-serif" font-size="10">0.425</text>
<rect x="486.67" y="263.07" width="46.47" height="176.93" fill="#59A14F"/>
<text x="509.90" y="257.07" text-anchor="middle" font-family="Arial, sans-serif" font-size="10">0.234</text>
<rect x="543.33" y="155.90" width="46.47" height="284.10" fill="#F28E2B"/>
<text x="566.57" y="149.90" text-anchor="middle" font-family="Arial, sans-serif" font-size="10">0.375</text>
<text x="486.67" y="468" text-anchor="middle" font-family="Arial, sans-serif" font-size="12">run2_20260519_rerun</text>
<rect x="713.33" y="118.26" width="46.47" height="321.74" fill="#4C78A8"/>
<text x="736.57" y="112.26" text-anchor="middle" font-family="Arial, sans-serif" font-size="10">0.425</text>
<rect x="770.00" y="263.07" width="46.47" height="176.93" fill="#59A14F"/>
<text x="793.23" y="257.07" text-anchor="middle" font-family="Arial, sans-serif" font-size="10">0.234</text>
<rect x="826.67" y="155.90" width="46.47" height="284.10" fill="#F28E2B"/>
<text x="849.90" y="149.90" text-anchor="middle" font-family="Arial, sans-serif" font-size="10">0.375</text>
<text x="770.00" y="468" text-anchor="middle" font-family="Arial, sans-serif" font-size="12">run3_20260519_rerun</text>
<rect x="90" y="486" width="16" height="16" fill="#4C78A8"/>
<text x="112" y="499" font-family="Arial, sans-serif" font-size="12">smoothquant_unified</text>
<rect x="330" y="486" width="16" height="16" fill="#59A14F"/>
<text x="352" y="499" font-family="Arial, sans-serif" font-size="12">mas_split_scales</text>
<rect x="570" y="486" width="16" height="16" fill="#F28E2B"/>
<text x="592" y="499" font-family="Arial, sans-serif" font-size="12">simplified_cmc</text>
</svg>